<mxfile host="65bd71144e">
    <diagram id="R2lEEEUBdFMjLlhIrx00" name="Page-1">
        <mxGraphModel dx="1200" dy="603" grid="1" gridSize="10" guides="1" tooltips="1" connect="1" arrows="1" fold="1" page="1" pageScale="1" pageWidth="850" pageHeight="1100" math="0" shadow="0" extFonts="Permanent Marker^https://fonts.googleapis.com/css?family=Permanent+Marker">
            <root>
                <mxCell id="0"/>
                <mxCell id="1" parent="0"/>
                <mxCell id="0CXqWpA0D5zM9gVO1vt8-4" value="Users" style="swimlane;childLayout=stackLayout;horizontal=1;startSize=30;horizontalStack=0;rounded=1;fontSize=14;fontStyle=0;strokeWidth=2;resizeParent=0;resizeLast=1;shadow=0;dashed=0;align=center;" parent="1" vertex="1">
                    <mxGeometry x="360" y="280" width="160" height="90" as="geometry"/>
                </mxCell>
                <mxCell id="0CXqWpA0D5zM9gVO1vt8-5" value="+Register&#10;+Auth/JWT&#10;+Subscriptions?" style="align=left;strokeColor=none;fillColor=none;spacingLeft=4;fontSize=12;verticalAlign=top;resizable=0;rotatable=0;part=1;" parent="0CXqWpA0D5zM9gVO1vt8-4" vertex="1">
                    <mxGeometry y="30" width="160" height="60" as="geometry"/>
                </mxCell>
                <mxCell id="0CXqWpA0D5zM9gVO1vt8-30" style="edgeStyle=elbowEdgeStyle;rounded=0;orthogonalLoop=1;jettySize=auto;html=1;entryX=1;entryY=0.5;entryDx=0;entryDy=0;targetPerimeterSpacing=6;" parent="0CXqWpA0D5zM9gVO1vt8-4" source="0CXqWpA0D5zM9gVO1vt8-5" target="0CXqWpA0D5zM9gVO1vt8-5" edge="1">
                    <mxGeometry relative="1" as="geometry"/>
                </mxCell>
                <mxCell id="0CXqWpA0D5zM9gVO1vt8-6" value="Publications" style="swimlane;childLayout=stackLayout;horizontal=1;startSize=30;horizontalStack=0;rounded=1;fontSize=14;fontStyle=0;strokeWidth=2;resizeParent=0;resizeLast=1;shadow=0;dashed=0;align=center;" parent="1" vertex="1">
                    <mxGeometry x="360" y="410" width="200" height="120" as="geometry"/>
                </mxCell>
                <mxCell id="0CXqWpA0D5zM9gVO1vt8-7" value="+Publications CRUD/search &#10;+Comments? &#10;+Likes?&#10;+Feed?&#10;+Chat???" style="align=left;strokeColor=none;fillColor=none;spacingLeft=4;fontSize=12;verticalAlign=top;resizable=0;rotatable=0;part=1;" parent="0CXqWpA0D5zM9gVO1vt8-6" vertex="1">
                    <mxGeometry y="30" width="200" height="90" as="geometry"/>
                </mxCell>
                <mxCell id="0CXqWpA0D5zM9gVO1vt8-11" value="MDB" style="shape=cylinder3;whiteSpace=wrap;html=1;boundedLbl=1;backgroundOutline=1;size=15;" parent="1" vertex="1">
                    <mxGeometry x="560" y="285" width="60" height="80" as="geometry"/>
                </mxCell>
                <mxCell id="0CXqWpA0D5zM9gVO1vt8-12" value="PG" style="shape=cylinder3;whiteSpace=wrap;html=1;boundedLbl=1;backgroundOutline=1;size=15;" parent="1" vertex="1">
                    <mxGeometry x="600" y="440" width="60" height="90" as="geometry"/>
                </mxCell>
                <mxCell id="0CXqWpA0D5zM9gVO1vt8-14" value="RabbitMQ" style="ellipse;shape=doubleEllipse;margin=3;whiteSpace=wrap;html=1;align=center;" parent="1" vertex="1">
                    <mxGeometry x="660" y="365" width="100" height="40" as="geometry"/>
                </mxCell>
                <mxCell id="0CXqWpA0D5zM9gVO1vt8-15" value="Notification" style="swimlane;childLayout=stackLayout;horizontal=1;startSize=30;horizontalStack=0;rounded=1;fontSize=14;fontStyle=0;strokeWidth=2;resizeParent=0;resizeLast=1;shadow=0;dashed=0;align=center;" parent="1" vertex="1">
                    <mxGeometry x="360" y="570" width="160" height="60" as="geometry"/>
                </mxCell>
                <mxCell id="0CXqWpA0D5zM9gVO1vt8-16" value="+Email&#10;" style="align=left;strokeColor=none;fillColor=none;spacingLeft=4;fontSize=12;verticalAlign=top;resizable=0;rotatable=0;part=1;" parent="0CXqWpA0D5zM9gVO1vt8-15" vertex="1">
                    <mxGeometry y="30" width="160" height="30" as="geometry"/>
                </mxCell>
                <mxCell id="0CXqWpA0D5zM9gVO1vt8-32" value="" style="endArrow=classic;startArrow=classic;html=1;rounded=0;strokeWidth=1;targetPerimeterSpacing=0;entryX=0;entryY=0.5;entryDx=0;entryDy=0;entryPerimeter=0;exitX=1;exitY=0.25;exitDx=0;exitDy=0;edgeStyle=orthogonalEdgeStyle;curved=1;" parent="1" source="0CXqWpA0D5zM9gVO1vt8-5" target="0CXqWpA0D5zM9gVO1vt8-11" edge="1">
                    <mxGeometry width="50" height="50" relative="1" as="geometry">
                        <mxPoint x="980" y="300" as="sourcePoint"/>
                        <mxPoint x="1030" y="250" as="targetPoint"/>
                    </mxGeometry>
                </mxCell>
                <mxCell id="0CXqWpA0D5zM9gVO1vt8-34" value="" style="endArrow=classic;startArrow=classic;html=1;rounded=0;strokeWidth=1;targetPerimeterSpacing=0;entryX=0;entryY=0.5;entryDx=0;entryDy=0;entryPerimeter=0;exitX=1;exitY=0.5;exitDx=0;exitDy=0;edgeStyle=orthogonalEdgeStyle;curved=1;" parent="1" source="0CXqWpA0D5zM9gVO1vt8-7" target="0CXqWpA0D5zM9gVO1vt8-12" edge="1">
                    <mxGeometry width="50" height="50" relative="1" as="geometry">
                        <mxPoint x="1020" y="349.5" as="sourcePoint"/>
                        <mxPoint x="1060" y="349.5" as="targetPoint"/>
                    </mxGeometry>
                </mxCell>
                <mxCell id="0CXqWpA0D5zM9gVO1vt8-52" value="BFF" style="swimlane;childLayout=stackLayout;horizontal=1;startSize=30;horizontalStack=0;rounded=1;fontSize=14;fontStyle=0;strokeWidth=2;resizeParent=0;resizeLast=1;shadow=0;dashed=0;align=center;" parent="1" vertex="1">
                    <mxGeometry x="120" y="280" width="160" height="160" as="geometry"/>
                </mxCell>
                <mxCell id="0CXqWpA0D5zM9gVO1vt8-53" value="+REST API&#10;+Adapter " style="align=left;strokeColor=none;fillColor=none;spacingLeft=4;fontSize=12;verticalAlign=top;resizable=0;rotatable=0;part=1;" parent="0CXqWpA0D5zM9gVO1vt8-52" vertex="1">
                    <mxGeometry y="30" width="160" height="130" as="geometry"/>
                </mxCell>
                <mxCell id="0CXqWpA0D5zM9gVO1vt8-55" value="" style="endArrow=classic;html=1;rounded=0;strokeWidth=1;targetPerimeterSpacing=0;exitX=1;exitY=0.25;exitDx=0;exitDy=0;entryX=0;entryY=1;entryDx=0;entryDy=0;edgeStyle=orthogonalEdgeStyle;" parent="1" source="0CXqWpA0D5zM9gVO1vt8-7" target="0CXqWpA0D5zM9gVO1vt8-14" edge="1">
                    <mxGeometry width="50" height="50" relative="1" as="geometry">
                        <mxPoint x="630" y="350" as="sourcePoint"/>
                        <mxPoint x="680" y="300" as="targetPoint"/>
                        <Array as="points">
                            <mxPoint x="580" y="463"/>
                            <mxPoint x="580" y="399"/>
                        </Array>
                    </mxGeometry>
                </mxCell>
                <mxCell id="0CXqWpA0D5zM9gVO1vt8-59" value="" style="endArrow=classic;html=1;rounded=0;strokeWidth=1;targetPerimeterSpacing=0;exitX=1;exitY=0;exitDx=0;exitDy=0;entryX=0.5;entryY=1;entryDx=0;entryDy=0;edgeStyle=orthogonalEdgeStyle;" parent="1" source="0CXqWpA0D5zM9gVO1vt8-16" target="0CXqWpA0D5zM9gVO1vt8-14" edge="1">
                    <mxGeometry width="50" height="50" relative="1" as="geometry">
                        <mxPoint x="570" y="472.5" as="sourcePoint"/>
                        <mxPoint x="629.6446609406728" y="354.14213562373106" as="targetPoint"/>
                        <Array as="points">
                            <mxPoint x="710" y="600"/>
                        </Array>
                    </mxGeometry>
                </mxCell>
                <mxCell id="0CXqWpA0D5zM9gVO1vt8-65" value="Users" style="swimlane;childLayout=stackLayout;horizontal=1;startSize=30;horizontalStack=0;rounded=1;fontSize=14;fontStyle=0;strokeWidth=2;resizeParent=0;resizeLast=1;shadow=0;dashed=0;align=center;" parent="1" vertex="1">
                    <mxGeometry x="360" y="280" width="160" height="90" as="geometry"/>
                </mxCell>
                <mxCell id="0CXqWpA0D5zM9gVO1vt8-66" value="+Register&#10;+Auth/JWT&#10;+Subscriptions?" style="align=left;strokeColor=none;fillColor=none;spacingLeft=4;fontSize=12;verticalAlign=top;resizable=0;rotatable=0;part=1;" parent="0CXqWpA0D5zM9gVO1vt8-65" vertex="1">
                    <mxGeometry y="30" width="160" height="60" as="geometry"/>
                </mxCell>
                <mxCell id="0CXqWpA0D5zM9gVO1vt8-67" style="edgeStyle=elbowEdgeStyle;rounded=0;orthogonalLoop=1;jettySize=auto;html=1;entryX=1;entryY=0.5;entryDx=0;entryDy=0;targetPerimeterSpacing=6;" parent="0CXqWpA0D5zM9gVO1vt8-65" source="0CXqWpA0D5zM9gVO1vt8-66" target="0CXqWpA0D5zM9gVO1vt8-66" edge="1">
                    <mxGeometry relative="1" as="geometry"/>
                </mxCell>
                <mxCell id="0CXqWpA0D5zM9gVO1vt8-71" value="" style="endArrow=classic;startArrow=classic;html=1;rounded=0;strokeWidth=1;targetPerimeterSpacing=0;exitX=1;exitY=0.5;exitDx=0;exitDy=0;edgeStyle=orthogonalEdgeStyle;" parent="1" source="0CXqWpA0D5zM9gVO1vt8-66" target="0CXqWpA0D5zM9gVO1vt8-14" edge="1">
                    <mxGeometry width="50" height="50" relative="1" as="geometry">
                        <mxPoint x="630" y="350" as="sourcePoint"/>
                        <mxPoint x="680" y="300" as="targetPoint"/>
                        <Array as="points">
                            <mxPoint x="550" y="340"/>
                            <mxPoint x="550" y="385"/>
                        </Array>
                    </mxGeometry>
                </mxCell>
                <mxCell id="0CXqWpA0D5zM9gVO1vt8-72" value="" style="endArrow=classic;startArrow=classic;html=1;rounded=0;strokeWidth=1;targetPerimeterSpacing=0;exitX=1;exitY=0.5;exitDx=0;exitDy=0;edgeStyle=elbowEdgeStyle;entryX=0;entryY=0.25;entryDx=0;entryDy=0;" parent="1" source="0CXqWpA0D5zM9gVO1vt8-53" target="0CXqWpA0D5zM9gVO1vt8-66" edge="1">
                    <mxGeometry width="50" height="50" relative="1" as="geometry">
                        <mxPoint x="310" y="420" as="sourcePoint"/>
                        <mxPoint x="360" y="370" as="targetPoint"/>
                    </mxGeometry>
                </mxCell>
                <mxCell id="0CXqWpA0D5zM9gVO1vt8-75" value="" style="endArrow=classic;startArrow=classic;html=1;rounded=0;strokeWidth=1;targetPerimeterSpacing=0;exitX=1;exitY=0.5;exitDx=0;exitDy=0;entryX=0;entryY=0.5;entryDx=0;entryDy=0;edgeStyle=elbowEdgeStyle;" parent="1" source="0CXqWpA0D5zM9gVO1vt8-53" target="0CXqWpA0D5zM9gVO1vt8-7" edge="1">
                    <mxGeometry width="50" height="50" relative="1" as="geometry">
                        <mxPoint x="310" y="420" as="sourcePoint"/>
                        <mxPoint x="360" y="370" as="targetPoint"/>
                    </mxGeometry>
                </mxCell>
                <mxCell id="0CXqWpA0D5zM9gVO1vt8-76" value="" style="endArrow=classic;startArrow=classic;html=1;rounded=0;strokeWidth=1;targetPerimeterSpacing=0;exitX=1;exitY=0.5;exitDx=0;exitDy=0;entryX=0;entryY=0;entryDx=0;entryDy=0;edgeStyle=elbowEdgeStyle;" parent="1" source="0CXqWpA0D5zM9gVO1vt8-53" target="0CXqWpA0D5zM9gVO1vt8-16" edge="1">
                    <mxGeometry width="50" height="50" relative="1" as="geometry">
                        <mxPoint x="310" y="420" as="sourcePoint"/>
                        <mxPoint x="360" y="370" as="targetPoint"/>
                        <Array as="points">
                            <mxPoint x="320" y="410"/>
                            <mxPoint x="300" y="520"/>
                        </Array>
                    </mxGeometry>
                </mxCell>
            </root>
        </mxGraphModel>
    </diagram>
</mxfile>
